# xmcd CD database file
# Copyright (C) 1993-1998 Ti Kan
#
# Track frame offsets:
# 150
# 17617
# 36357
# 55195
# 71797
#
# Disc length: 1195 seconds
# Revision: 0
# Processed by: cddbd v1.4b41PL1 Copyright (c) Steve Scherf et al.
# Submitted via: CDSpectrumPro v3.3.331
#
DISCID=3f04a905
DTITLE=Trey Lorenz - Photograph of Mary [CD Single)
DYEAR=1900
DGENRE=
TTITLE0=Character Hard Radio Remix
TTITLE1=LP Version
TTITLE2=Michael Brauer R&B Remix
TTITLE3=Rooney and Morales Remix
TTITLE4=Characters Radio Remix
EXTD=
EXTT0=
EXTT1=
EXTT2=
EXTT3=
EXTT4=
PLAYORDER=
